<?xml version="1.0" encoding="utf-8"?>
<!-- Generator: Adobe Illustrator 16.0.0, SVG Export Plug-In . SVG Version: 6.00 Build 0)  -->
<!DOCTYPE svg PUBLIC "-//W3C//DTD SVG 1.1//EN" "http://www.w3.org/Graphics/SVG/1.1/DTD/svg11.dtd">
<svg version="1.1" id="Layer_1" xmlns="http://www.w3.org/2000/svg" xmlns:xlink="http://www.w3.org/1999/xlink" x="0px" y="0px"
	 width="97.17px" height="70.1px" viewBox="0 0 97.17 70.1" enable-background="new 0 0 97.17 70.1" xml:space="preserve">
<path fill="#E6E7E8" d="M0,16.73h7.229h1h24.34h1h6.401h1h24.34h1h7.309c0.281,0,0.5,0.22,0.5,0.5v14.86v1V70.1h-1V32.59V17.73
	H65.81H40.47h-7.401H7.729H0V16.73z"/>
<path fill="#E6E7E8" d="M50.58,32.09H0v1h50.08V70.1h1V32.59C51.08,32.32,50.858,32.09,50.58,32.09"/>
<path fill="#E6E7E8" d="M96.67,32.09H73.618c-0.269,0-0.5,0.23-0.5,0.5V70.1h1V33.09H96.17V70.1h1V32.59
	C97.17,32.32,96.939,32.09,96.67,32.09"/>
<path fill="#E6E7E8" d="M65.81,8.32H40.47c-0.281,0-0.5,0.22-0.5,0.5v8.41c0,0.27,0.219,0.5,0.5,0.5h25.34c0.271,0,0.5-0.23,0.5-0.5
	V8.82C66.31,8.54,66.08,8.32,65.81,8.32 M40.97,9.32h24.34v7.41H40.97V9.32z"/>
<path fill="#E6E7E8" d="M33.069,0H7.729c-0.27,0-0.5,0.22-0.5,0.5v16.73c0,0.27,0.23,0.5,0.5,0.5h25.34c0.28,0,0.5-0.23,0.5-0.5V0.5
	C33.569,0.22,33.349,0,33.069,0 M8.229,1h24.34v15.73H8.229V1z"/>
<rect x="9.84" y="32.59" fill="#E6E7E8" width="1" height="37.51"/>
<rect x="29.959" y="32.59" fill="#E6E7E8" width="1" height="37.51"/>
</svg>
