<?xml version="1.0" encoding="utf-8"?>
<!-- Generator: Adobe Illustrator 20.0.0, SVG Export Plug-In . SVG Version: 6.00 Build 0)  -->
<svg version="1.1" id="Layer_1" xmlns="http://www.w3.org/2000/svg" xmlns:xlink="http://www.w3.org/1999/xlink" x="0px" y="0px"
	 viewBox="0 0 325.2 325.2" style="enable-background:new 0 0 325.2 325.2;" xml:space="preserve">
<style type="text/css">
	.st0{fill:#818181;}
</style>
<path class="st0" d="M277.6,47.6C246.9,16.9,206,0,162.6,0s-84.3,16.9-115,47.6S0,119.2,0,162.6s16.9,84.3,47.6,115
	s71.5,47.6,115,47.6s84.3-16.9,115-47.6c30.7-30.7,47.6-71.5,47.6-115S308.3,78.3,277.6,47.6z M238.8,69.9l7.1-29.7
	c28.5,19.4,49.8,48.5,59.3,82.5l-3.7,0.7c-5.6,1.1-10.1,5.3-11.5,10.9l-1.5,5.9c0,0.1,0,0.1,0,0.1c-0.2,0.1-0.2,0-0.2,0l-8.7-6.5
	c-4.5-3.4-10.6-3.9-15.6-1.3l-10.8,5.7c-5.2,2.7-8.2,8-7.8,13.9c0.4,5.9,4,10.8,9.5,12.8l0.5,0.2l0.1,0.1c0,0.1,0,0.1,0,0.2
	l-6.7,7.8c-0.1,0.1-0.2,0.1-0.3,0l-18.2-11.7c-4.2-2.7-9.4-3.1-13.9-1.1c-4.5,2-7.7,6.1-8.5,11l-1.4,8.6c-0.8,4.8,0.9,9.7,4.5,13.1
	l9.5,8.9c0.1,0.1,0.1,0.2,0,0.3L205,225.7c-1.5,2.2-2.3,4.8-2.4,7.5l-1.3,33.5l-0.1,0.1L180.6,287c-0.1,0.1-0.2,0.1-0.3,0l-13.3-7.8
	c0,0-0.1-0.1-0.1-0.1c0,0-6.5-29.4-6.7-30l-5.9-15.8c-2-5.3-6.9-9-12.5-9.5l-26.9-2.3c-0.1,0-0.1,0-0.1,0l-15.4-26.5l0-0.1l3.9-25.7
	l0.1-0.1l23.5-17.8l0.2,0l22.8,9.5c1.3,0.5,2.7,0.9,4.1,1l31.6,3.4c3.6,0.4,7.2-0.6,10.1-2.7l20.9-15c5.6-4,7.7-11.6,4.8-17.9
	l-1.9-4.3c-2.3-5-7.1-8.4-12.6-8.7l-58.7-3.2l-0.1,0c-0.1,0-0.1-0.1-0.1-0.1l0,0l0-0.3c0,0,0,0,0.1,0l17.6-4.8
	c2.3-0.6,4.5-1.8,6.2-3.5l21.6-20.4l0.1-0.1l32.5-3.3C232.2,80.4,237.4,75.9,238.8,69.9z M128.9,58L141,35.1c1.8-3.4,2.4-7.3,1.6-11
	l-1.6-8c7.1-1,14.3-1.6,21.7-1.6c7.4,0,14.7,0.6,21.8,1.6c0,0-1.7,1.9-2,2L165.2,25c-2.5,1-4.7,2.6-6.4,4.6l-26.8,31.3
	c-0.4,0.4-0.9,0.7-1.5,0.7c-0.9,0-1.4-0.4-1.6-0.7C128,59.8,128.8,58.1,128.9,58z M65.7,50.6v21.7c0,6.1-3,11.6-8.1,14.9L42,97.3
	c-3.6,2.3-6.7,5.3-9.1,8.9l-14.1,20.7C26.3,96.8,43,70.3,65.7,50.6z M75.1,264l-2,16.6c-23.2-17.6-41-41.9-50.6-70h9.2
	c1.1,0,2.2,0.6,2.8,1.5l18.6,29c0.8,1.3,1.8,2.5,3,3.5l18.1,16.5C74.9,261.9,75.3,262.9,75.1,264z M162.6,310.8
	c-27.8,0-53.8-7.7-76.1-21.1l3-23.9c0.7-5.7-1.4-11.4-5.7-15.3c0,0-18.5-16.9-18.6-17.1l-18.6-29c-3.3-5.1-8.9-8.2-14.9-8.2H18.3
	c-2.5-10.8-3.8-22-3.8-33.6c0-1.2,0-2.5,0-3.7l30.4-44.5c1.3-2,3-3.6,5-4.9l15.6-10.1c9.2-6,14.7-16.1,14.7-27.1V39.6
	c14-9.4,29.8-16.5,46.6-20.7l1.7,8.1c0.1,0.5,0,0.9-0.2,1.4l-12.1,22.8c-0.8,1.4-1.7,5.2-1.7,5.2c-1,5,0.3,10.1,3.7,13.9
	c3.2,3.7,7.7,5.8,12.5,5.8c0.2,0,7.2,0.3,12.5-5.8L169.8,39c0.2-0.2,0.5-0.4,0.8-0.6l17.2-6.9c2.4-1,4.6-2.6,6.4-4.5l6.5-7.5
	c11.4,3,22.3,7.4,32.5,12.9c-0.2,0.4-8.3,34.2-8.3,34.2c0,0.1-0.1,0.1-0.1,0.1L192.1,70c-3.2,0.3-6.2,1.7-8.6,3.9L162,94.3l-0.1,0
	l-17.6,4.8c-5.8,1.6-10,6.4-10.7,12.3c-0.8,5.9,2.1,11.6,7.3,14.6c2,1.1,4.2,1.8,6.5,1.9l58.7,3.2c0.1,0,0.1,0.1,0.1,0.1l2,4.4
	l-0.1,0.3l-20.9,15l-0.1,0l-31.6-3.4l-22.8-9.5c-4.8-2-10.3-1.3-14.5,1.8l-23.5,17.8c-3.1,2.3-5.1,5.7-5.7,9.5l-3.9,25.6
	c-0.5,3.3,0.2,6.7,1.8,9.5l15.3,26.4c2.4,4.1,6.7,6.8,11.4,7.3l26.9,2.3c0,0,0.1,0.1,0.2,0.1l5.9,15.8l6.1,28c0.9,4,3.4,7.5,6.9,9.5
	l13.3,7.8c2.3,1.3,4.9,2,7.4,2c3.8,0,7.5-1.4,10.3-4.2l20.6-20.2c2.7-2.6,4.2-6.1,4.4-9.9l1.3-33.5l0-0.1l15.5-23.5
	c3.9-6,3-13.9-2.2-18.8l-9.5-8.9l-0.1-0.1l1.4-8.6c0,0,0-0.1,0.1-0.2l0.1,0l18.2,11.8c6.1,3.9,14.3,2.8,19-2.7l6.7-7.8
	c3.2-3.6,4.3-8.6,3.2-13.2c-1.2-4.7-4.6-8.4-9.1-10.1l-0.5-0.2l-0.1,0l0-0.2l0.1-0.1l10.8-5.7c0.1,0,0.2,0,0.2,0l8.7,6.5
	c3.9,3,9.1,3.7,13.7,2.1c4.6-1.7,8.1-5.5,9.3-10.3l1.5-5.9c0,0,0.1-0.1,0.2-0.2l4.2-0.8c1.5,8.4,2.2,17,2.2,25.8
	C310.8,244.3,244.3,310.8,162.6,310.8z"/>
</svg>
