<?xml version="1.0" encoding="utf-8"?>
<!-- Generator: Adobe Illustrator 16.0.0, SVG Export Plug-In . SVG Version: 6.00 Build 0)  -->
<!DOCTYPE svg PUBLIC "-//W3C//DTD SVG 1.1//EN" "http://www.w3.org/Graphics/SVG/1.1/DTD/svg11.dtd">
<svg version="1.1" id="Layer_1" xmlns="http://www.w3.org/2000/svg" xmlns:xlink="http://www.w3.org/1999/xlink" x="0px" y="0px"
	 width="612.284px" height="214.574px" viewBox="0 0 612.284 214.574" enable-background="new 0 0 612.284 214.574"
	 xml:space="preserve">
<path fill="#209FDA" d="M124.649,38.324c-5.338,3.227-10.668,6.461-16.007,9.67c-7.022,4.225-14.027,8.466-21.099,12.608
	c-1.337,0.775-1.485,1.733-1.485,3.069c0.025,36.265,0.017,72.529,0.017,108.802c0,5,0.041,10.009-0.024,15.001
	c-0.025,1.427,0.363,1.947,1.856,1.931c6.733-0.074,13.474-0.041,20.224-0.017c1.015,0.009,1.873-0.297,2.731-0.817
	c22.328-13.392,44.656-26.775,66.992-40.158c0.512-0.306,1.04-0.999,1.642-0.636c0.578,0.339,0.256,1.147,0.256,1.733
	c0.017,20.355,0,40.72,0.066,61.075c0,1.832-0.495,2.303-2.327,2.303c-56.843-0.05-113.67-0.058-170.513,0.017
	c-2.203,0-2.397-0.834-2.389-2.641C4.622,153.504,4.63,96.727,4.581,39.966c0-1.749,0.507-2.194,2.219-2.187
	c38.699,0.042,77.41,0.025,116.1,0.025h1.618C124.559,37.978,124.607,38.151,124.649,38.324"/>
<path fill="#010101" d="M494.505,1.729c8.861,0,17.336,0.042,25.818-0.049c1.353-0.016,1.766,0.784,2.326,1.642
	c8.317,12.79,16.643,25.571,24.961,38.352c0.305,0.462,0.627,0.908,1.022,1.494c4.571-7.162,9.085-14.217,13.59-21.28
	c3.911-6.139,7.847-12.262,11.7-18.441c0.776-1.246,1.602-1.782,3.128-1.766c7.648,0.099,15.289,0.049,22.93,0.049h2.253
	c-2.311,3.516-4.423,6.725-6.535,9.927c-10.825,16.37-21.627,32.766-32.51,49.095c-0.801,1.222-0.445,1.931,0.215,2.896
	c13.392,19.836,26.767,39.672,40.15,59.517c1.387,2.055,2.78,4.117,4.15,6.155c-0.471,0.71-1.081,0.404-1.576,0.404
	c-7.707,0.024-15.422-0.05-23.137,0.066c-1.815,0.024-2.813-0.537-3.795-2.071c-9.737-15.166-19.564-30.282-29.358-45.407
	c-0.256-0.404-0.528-0.792-0.949-1.428c-1.32,2.03-2.565,3.92-3.778,5.826c-8.738,13.738-17.485,27.469-26.174,41.24
	c-0.833,1.319-1.691,1.84-3.301,1.831c-16.049-0.074-32.105-0.082-48.146,0.009c-1.741,0.008-2.368-0.578-2.913-2.113
	c-3.548-10.041-7.229-20.042-10.776-30.084c-0.528-1.502-1.229-1.963-2.797-1.955c-16.188,0.066-32.378,0.066-48.575,0.017
	c-1.461-0.009-2.129,0.396-2.641,1.815c-3.631,10.239-7.393,20.43-11.04,30.661c-0.446,1.246-1.023,1.65-2.352,1.643
	c-7.088-0.074-14.176-0.083-21.256,0c-1.749,0.017-2.096-0.272-1.427-2.005c7.393-19.103,14.729-38.221,22.056-57.339
	c8.523-22.221,17.03-44.449,25.496-66.687c0.577-1.494,1.237-2.096,2.946-2.071c8.481,0.116,16.956,0.091,25.438,0.017
	c1.402-0.017,1.988,0.388,2.508,1.716c15.743,41.232,31.554,82.447,47.354,123.654c0.272,0.693,0.553,1.37,0.949,2.385
	c2.235-3.366,4.307-6.461,6.354-9.556c12.401-18.73,24.778-37.469,37.229-56.174c0.809-1.229,0.8-2.021-0.017-3.235
	c-12.773-18.903-25.488-37.84-38.22-56.785C495.437,3.141,495.065,2.58,494.505,1.729 M407.784,75.455
	c0.33,0.107,0.453,0.198,0.585,0.198c12.022,0.008,24.036-0.017,36.059,0.033c1.766,0.008,1.081-0.9,0.8-1.676
	c-1.889-5.272-3.804-10.545-5.718-15.81c-4.191-11.568-8.392-23.128-12.748-35.15C420.342,40.783,414.063,58.119,407.784,75.455"/>
<path fill="#010101" d="M264.541,29.603v4.068c0,31.272-0.016,62.537,0.033,93.8c0,1.725-0.264,2.377-2.22,2.327
	c-5.825-0.156-11.675-0.124-17.501-0.017c-1.757,0.033-2.384-0.313-2.343-2.235c0.14-6.321,0.058-12.642,0.058-18.962
	c0-34.813,0.017-69.625-0.05-104.437c-0.008-2.014,0.479-2.5,2.483-2.476c9.316,0.124,18.624,0.083,27.931,0.017
	c1.378-0.017,2.08,0.421,2.715,1.617c16.453,30.934,33.055,61.786,48.79,93.1c0.916,1.84,1.79,3.696,3.045,5.512V99.78
	c0.008-31.892,0.024-63.783-0.05-95.674c-0.008-2.096,0.603-2.476,2.525-2.435c5.907,0.141,11.815,0.124,17.723,0.008
	c1.635-0.033,1.873,0.495,1.873,1.972c-0.041,41.339-0.041,82.678,0.009,124.017c0.009,1.782-0.487,2.129-2.17,2.112
	c-9.456-0.082-18.903-0.058-28.352-0.024c-1.147,0.008-1.873-0.231-2.476-1.346c-16.874-31.891-34.061-63.608-50.135-95.921
	l-1.469-2.962C264.813,29.553,264.673,29.569,264.541,29.603"/>
</svg>
