<?xml version="1.0" encoding="utf-8"?>
<!-- Generator: Adobe Illustrator 16.0.0, SVG Export Plug-In . SVG Version: 6.00 Build 0)  -->
<!DOCTYPE svg PUBLIC "-//W3C//DTD SVG 1.1//EN" "http://www.w3.org/Graphics/SVG/1.1/DTD/svg11.dtd">
<svg version="1.1" id="Layer_1" xmlns="http://www.w3.org/2000/svg" xmlns:xlink="http://www.w3.org/1999/xlink" x="0px" y="0px"
	 width="15.063px" height="21.563px" viewBox="0 0 15.063 21.563" enable-background="new 0 0 15.063 21.563" xml:space="preserve">
<path fill="none" stroke="#E65D25" stroke-linejoin="round" stroke-miterlimit="10" d="M14.072,5.838
	C14,5.57,13.855,5.285,13.748,5.037c-1.279-3.076-4.076-4.178-6.333-4.178c-3.021,0-6.35,2.027-6.795,6.203v0.854
	c0,0.035,0.012,0.355,0.029,0.518c0.25,1.988,1.82,4.105,2.995,6.096c1.262,2.135,2.57,4.232,3.869,6.33
	c0.801-1.371,1.598-2.758,2.379-4.09c0.213-0.391,0.461-0.781,0.673-1.154c0.143-0.25,0.414-0.498,0.539-0.729
	c1.262-2.313,3.293-4.641,3.293-6.936V7.01C14.396,6.762,14.087,5.891,14.072,5.838z M7.471,10.121
	c-0.889,0-1.861-0.443-2.342-1.672C5.057,8.256,5.063,7.863,5.063,7.826V7.275C5.063,5.713,6.391,5,7.547,5
	c1.422,0,2.523,1.139,2.523,2.561C10.07,8.984,8.893,10.121,7.471,10.121z"/>
</svg>
