<svg xmlns="http://www.w3.org/2000/svg" width="610.81" height="1312.16" viewBox="0 0 610.81 1312.16"><defs><style>.cls-1{fill:#414042;}.cls-2{fill:#e85a0c;}.cls-3,.cls-4,.cls-5{fill:none;stroke:#e85a0c;stroke-miterlimit:10;}.cls-3{opacity:0.3;}.cls-4{opacity:0.2;}.cls-5{opacity:0.1;}</style></defs><title>map</title><g id="Layer_1" data-name="Layer 1"><path id="map" class="cls-1" d="M610.64,973.47c-28-18.41,5.31-16.33-.53-42.37a84.63,84.63,0,0,1-11.84-19.47,20.26,20.26,0,0,1,1.7-20.29c-.2-8-3.24-15.52-3.79-23.89-1-16,3.65-20-.4-35.2-2.9-10.9-11.58-20.92-13.91-32-4.37-20.91-4.18-46.17-11-65.88-6.07-17.42-14.34-17.64-26.05-28.15-8.12-7.29-14.95-18.16-20.35-27.53a9.61,9.61,0,0,1-8.49-5.86l.48-9.54a16.76,16.76,0,0,0-1.67-14.43q-11.12-6.18-21.61-13.39c-10.63-7-20.88-14.49-31.54-21.42-14.74-9.59-30.81-17.69-42.85-30.88-4.95-5.42,1-9.75-2.76-13.79-18.77-20.4-44.33-26.25-52.15-56.66-2.47-9.6,1-21.41-4.29-30.16C353,471.6,337.73,468,329.05,459.19c-9.79-9.94-29.25-38.35-31.94-51.46a18.66,18.66,0,0,1-5.76-6.9,47.27,47.27,0,0,1,11.6-9c3.47-11.47-.06-25.1,3.6-36.07s11.72-28.86,20-37.83c11.23-12.19,35.88-16.38,46.79-31.27,7.65-10.44,4.51-23.05,10.64-33.1,6.4-10.5,19.33-17.63,29.52-23.43,13.12-7.47,58.79-18.34,46.34-39.73,13.58-7.62,30.08-7.89,42.92-17.14,2.33,2.11-22.6-12.62-17.72-11.31-8.33-2.23-21.89,1.92-31.37,1.88-2.07,0-17.37-7.64-22-10.8-6.71-4.6-9.53,3.55-12.71-6.57s11.54-5.87,12.46-9.58c2.53-10.14-29.17-8.95-33.05-10.87-14.42-7.12-6.42-12.33-11.33-25.62-1.91-5.19-11.54-7-11.3-13.72.53-14.13,28.18-15.76,14.45-35.79-3.21-4.69-12.32-9-17.19-9.76-7.34-1.12-16.83,8.24-24.57,6.24-3.69-1-5-5.33-7.89-6.12-3.62-1-7.3-7.4-12.45-8.44-3.28-.67-4.07,5.53-5.2,5.32-3.34-.63-10.49-1.31-17.69-3.75-8.37-2.84-11.84-2.71-16.77-7.67-5.79-5.82-.54-17.54-12.64-24.12-11.65-6.33-25.4.14-37.05,8.35-12.29,8.67-9.35,11.15-12.86,20.89-1.35,3.73,4.72,5.84,1.69,11.41-3.47,6.36-11.15,4.89-15.64,7.12-7.61,3.76-23.36.46-18.73,16.85C189.55,64,180.68,51,177.77,50.73c-13.33-1.42-22.8,21.43-20.9,31.49a217.25,217.25,0,0,1-25.42-18h0c.1-18.63-18.89,9.46-17,6.6.77-10.54-11.13-23.72-21.11-19.77-2.37.93-4,21-14.11,24.36S43.94,64.76,34.51,60.77c1.81.77-16.61-8-12.89-8.52-3.46.48-7.57,16.73-9.48,19.42C1.54,86.61-3.19,75.61,2.32,93.4,6,105.27,17.65,109.1,24.58,118c5.63,7.27,9.55,27.07,15.66,32.09,13.73,11.27-9.55-1.28,9.23,6.26,8.16,3.28,6.56-17.56,17.9-1.38,9.72,13.88-10.05,32-16.15,41.42,13.69.16,19,28,28.84,34,8,4.85,17.67.57,27.39,4.13,4.68,1.72,20.19,21.73,26.53,17.59,1.34-.87,1.49-11.38,4.63-14.67,4.61-4.85-2.11-4.79,4.42-9.07,2.24-1.46,24.67-2.57,24.8-2.54,6.73,1.44,31.08,15.08,33.82,21.27,7.32,16.61-6.59,6.14-13.48,16.37-8,11.89,1.22,2.65,13.88,9.76,10.23,5.76,2.63,10.68,10.66,17.87,8.7,7.79,18.69-4.83,22.78,8,3.39,10.59-15.05,19-20.59,24.8l10.6.53c-4.73,19.13-34.93,13-47.63,12.15-11.46-.75-36.73,11.84-16.24,14.33-2.32,13.45-15.3,11.52-22.82,26,30.91.15,52.95,28,77.8,41.47,6.33,3.44,24.85,5,28.77,9.24,6,6.57-.36,5.43,2.31,13.09.56,1.61,12.72,51.39,25.7,42.3a42.3,42.3,0,0,0,4-10.51c9.31,3.16,12.7,24,16.82,31.45,2.29,4.13,13.42,28.92,15.82,30,13.52,6-5.41-14.92,16.43,8.73,11.86,12.84,7.83,16,23.33,12.28,3.92,15.26,14.79,23.9,18.69,38.64,4.08,15.38-5.65,24.7,10.09,31.66,6.94,3.06,12-4.71,17.39-2,4,2.06,3.81,7.54,7.07,9.69,9.29,6.13,18.34,16.75,27.83,23.48,14.28,10.12,18.73.15,9.42,19.2-8.33,17-21.63,16.35.11,35.91,7.77,7,23.11,9.11,23.29,23.34s-14,12.39-20,18.86c.88,8.6,9.41,13.23,9.27,24.5-.2,17.1-13.13,35.34-17.16,51.77-1.19,4.84-6.65,9.28-5.81,14.06.71,4.06,8.69-.42,10.11,1.8,5.4,8.47,14.56,21.1,16.07,33.53,1.7,13.91-4.4,28.26-6.91,41.83-3.41,18.48,3.74,33.36,2,51.6-3.23,34.4-14,11-35.61,21.15-4.8,2.25-8.38,12.07-12.9,13.39s-13.14-1.06-15.92.11c-6.47,2.71-4.79,8.16-10.42,10.73-8.78,4-11.5,2.51-18.07,7.7-9.27,7.33-1.27,14.34-18.48,15.5-13.64.92-33.59-8.21-36.64,12.19-1.06,7.09,11.38,33.54,14.23,37.24,7,9.12,24.93,12.65,19.24,26.84-.27.68-28.86-4.29-29.76-4.82-16.54-9.73-2.81-20.31-27.24-7.78-2.77,1.42-11.86,7.37-13.23,7.53-2.34.28-11.61-1.41-13-1.09-8.62,2-5.62-12.26-15.41,1.41-5.68,7.93-2.53,8.34,5.08,14-12.44,10.31-19.58,9.45-32.43,15.12-9,4-29.15,12.14-16.29,26.87,4.23,4.83,22.54,8.47,26.81,10.32-1.73-.75,15.33,8.23,14.56,6.53,7.32,16.39-12.71,16.49-18.09,38.41-4.47,18.19-.47,37.33-3.49,55.53-1.66,10-11.16,20.17-12.18,28.07,33.92,8.21,42.65,6.64,61.56-21.12,16.54-24.29,51.55-31.61,74.66-46.47,3.87-2.49,3.11-8.45,7.25-10.7s8.28,4.26,12.64,1.16c9.64-6.86,11.38-13.81,15.86-25.93,2.56-6.9,11.25-18.22,12.58-23.38,2.55-9.9-5.64-18.35-3-30.93,1.67,27.37,22,1.87,24.86-6.77,4,5.46,3.92,15.17,8,17.61,16.08,9.59,31.85-11.79,43.72-18.14,16.33-8.73,29.54-18.22,44.32-27.11,7.56-4.55,16.53-5.08,24.27-9.85,10.29-6.34,16.16-16.91,27-22.92,5.84-3.23,20.79-4.6,24.22-8.35,3.8-4.16-.3-9.12,2.12-13.53,5-9,5.67-23.77,9.05-33.71,2.06-6.07,4.86-.23,5.83-6.24,1.45-9-2.84-20.32.13-28.72C599.09,987.23,612.34,974.59,610.64,973.47Z"/><circle id="Sai-gon" class="cls-2" cx="373.91" cy="1125.48" r="7.5"/><circle id="Da-nang" class="cls-2" cx="515.91" cy="711.51" r="7.5"/><circle id="Hai-phong" class="cls-2" cx="393.99" cy="211.51" r="7.5"/><circle id="Ha-noi" class="cls-2" cx="293.1" cy="176.25" r="14.06"/><g id="Selection"><circle class="cls-3" cx="293.1" cy="176.25" r="24.37"/><circle class="cls-4" cx="293.1" cy="176.25" r="36.19"/><circle class="cls-5" cx="293.1" cy="176.25" r="46.85"/></g></g></svg>