<?xml version="1.0" encoding="utf-8"?>
<!-- Generator: Adobe Illustrator 16.0.0, SVG Export Plug-In . SVG Version: 6.00 Build 0)  -->
<!DOCTYPE svg PUBLIC "-//W3C//DTD SVG 1.1//EN" "http://www.w3.org/Graphics/SVG/1.1/DTD/svg11.dtd">
<svg version="1.1" id="Layer_1" xmlns="http://www.w3.org/2000/svg" xmlns:xlink="http://www.w3.org/1999/xlink" x="0px" y="0px"
	 width="612.284px" height="214.574px" viewBox="0 0 612.284 214.574" enable-background="new 0 0 612.284 214.574"
	 xml:space="preserve">
<path fill="#FFFFFF" d="M121.972,37.229c-5.423,3.281-10.829,6.567-16.265,9.827c-7.133,4.292-14.245,8.604-21.433,12.808
	c-1.354,0.788-1.509,1.76-1.509,3.114c0.025,36.842,0.017,73.68,0.017,110.526c0,5.079,0.042,10.167-0.025,15.237
	c-0.025,1.459,0.369,1.979,1.886,1.962c6.844-0.067,13.691-0.042,20.539-0.018c1.04,0.009,1.907-0.301,2.783-0.82
	c22.677-13.612,45.362-27.208,68.043-40.803c0.524-0.302,1.056-1.006,1.677-0.637c0.591,0.335,0.255,1.156,0.255,1.76
	c0.017,20.669,0,41.355,0.071,62.033c0,1.869-0.507,2.339-2.372,2.339c-57.738-0.051-115.463-0.051-173.201,0.017
	c-2.242,0-2.439-0.838-2.431-2.674C0.042,154.234,0.05,96.571,0,38.905c0-1.777,0.516-2.234,2.259-2.225
	c39.311,0.046,78.625,0.029,117.936,0.029h1.639C121.879,36.889,121.93,37.061,121.972,37.229"/>
<path fill="#FFFFFF" d="M497.672,0.055c9.002,0,17.61,0.042,26.227-0.038c1.366-0.017,1.794,0.784,2.372,1.668
	c8.44,12.983,16.897,25.971,25.347,38.95c0.318,0.469,0.637,0.926,1.039,1.517c4.644-7.271,9.229-14.445,13.805-21.612
	c3.974-6.24,7.972-12.463,11.886-18.729c0.796-1.271,1.617-1.811,3.177-1.794c7.762,0.088,15.54,0.038,23.293,0.038h2.288
	c-2.347,3.571-4.492,6.839-6.639,10.092c-10.996,16.633-21.96,33.276-33.023,49.875c-0.805,1.228-0.453,1.949,0.218,2.942
	c13.612,20.146,27.19,40.299,40.785,60.449c1.408,2.096,2.825,4.191,4.216,6.253c-0.478,0.721-1.098,0.41-1.601,0.419
	c-7.828,0.017-15.665-0.051-23.503,0.059c-1.844,0.025-2.857-0.545-3.855-2.096c-9.891-15.414-19.864-30.761-29.822-46.133
	c-0.26-0.402-0.536-0.805-0.964-1.442c-1.333,2.062-2.599,3.977-3.83,5.905c-8.885,13.964-17.77,27.916-26.596,41.904
	c-0.847,1.333-1.718,1.869-3.344,1.861c-16.312-0.075-32.622-0.084-48.917,0.008c-1.768,0.009-2.405-0.586-2.949-2.145
	c-3.604-10.21-7.352-20.368-10.955-30.573c-0.528-1.517-1.249-1.982-2.842-1.974c-16.445,0.063-32.891,0.063-49.335,0.008
	c-1.492,0-2.171,0.402-2.683,1.848c-3.696,10.39-7.51,20.749-11.223,31.143c-0.453,1.274-1.031,1.685-2.389,1.668
	c-7.192-0.067-14.393-0.084-21.592,0.009c-1.777,0.016-2.129-0.294-1.45-2.046c7.51-19.403,14.962-38.824,22.404-58.249
	c8.659-22.572,17.3-45.14,25.908-67.737c0.578-1.517,1.249-2.129,2.992-2.104c8.616,0.121,17.216,0.096,25.833,0.017
	c1.425-0.009,2.028,0.398,2.548,1.752c15.992,41.884,32.052,83.746,48.111,125.601c0.269,0.704,0.554,1.399,0.956,2.423
	c2.279-3.429,4.375-6.563,6.453-9.698c12.606-19.026,25.18-38.074,37.818-57.076c0.822-1.245,0.813-2.045-0.016-3.273
	c-12.976-19.207-25.884-38.451-38.825-57.684C498.619,1.497,498.242,0.918,497.672,0.055 M409.579,74.955
	c0.336,0.113,0.47,0.192,0.596,0.201c12.212,0.008,24.416-0.017,36.637,0.033c1.794,0.008,1.09-0.918,0.805-1.71
	c-1.92-5.356-3.864-10.703-5.801-16.06c-4.258-11.738-8.532-23.481-12.958-35.693C422.337,39.743,415.958,57.345,409.579,74.955"/>
<path fill="#FFFFFF" d="M264.068,28.369v4.141c0,31.763-0.017,63.521,0.038,95.288c0,1.752-0.268,2.405-2.25,2.354
	c-5.93-0.158-11.86-0.125-17.782-0.016c-1.785,0.033-2.423-0.319-2.381-2.271c0.147-6.421,0.055-12.842,0.055-19.262
	c0-35.363,0.025-70.722-0.055-106.084c0-2.054,0.499-2.54,2.536-2.515c9.455,0.122,18.914,0.092,28.373,0.017
	c1.399-0.017,2.112,0.428,2.757,1.639c16.709,31.423,33.573,62.767,49.557,94.576c0.931,1.86,1.819,3.75,3.093,5.595V99.66
	c0.017-32.392,0.034-64.783-0.05-97.183c0-2.129,0.611-2.515,2.564-2.464c6.002,0.13,12.003,0.113,18.004,0
	c1.66-0.034,1.903,0.498,1.903,1.999c-0.042,41.997-0.042,83.985,0.008,125.978c0.017,1.811-0.494,2.162-2.204,2.146
	c-9.605-0.084-19.203-0.06-28.791-0.025c-1.174,0.008-1.911-0.227-2.515-1.366c-17.146-32.396-34.608-64.62-50.937-97.438
	c-0.499-1.006-0.993-2.007-1.5-3.005C264.353,28.327,264.206,28.344,264.068,28.369"/>
<path fill="#FFFFFF" d="M183.867,64.926c0-20.82,0.034-41.641-0.059-62.465c-0.008-2.129,0.599-2.489,2.556-2.456
	c6.635,0.13,13.269,0.088,19.903,0.021c1.366-0.012,1.777,0.323,1.777,1.739c-0.042,42.144-0.042,84.279,0.009,126.418
	c0,1.668-0.516,1.969-2.033,1.953c-6.714-0.084-13.415-0.102-20.12,0c-1.706,0.033-2.074-0.47-2.066-2.113
	C183.884,106.994,183.867,85.964,183.867,64.926"/>
</svg>
