<?xml version="1.0" encoding="utf-8"?>
<!-- Generator: Adobe Illustrator 20.0.0, SVG Export Plug-In . SVG Version: 6.00 Build 0)  -->
<svg version="1.1" id="Layer_1" xmlns="http://www.w3.org/2000/svg" xmlns:xlink="http://www.w3.org/1999/xlink" x="0px" y="0px"
	 viewBox="0 0 612 108.9" style="enable-background:new 0 0 612 108.9;" xml:space="preserve">
<style type="text/css">
	.st0{fill:#E65D25;}
	.st1{fill:#020202;}
</style>
<g>
	<path class="st0" d="M491.8,12.6c-0.5,0.7-0.9,1.4-1.4,2c-8.4,11.5-16.7,23-25.1,34.5c-3.2,4.5-3.2,6.2,0,10.7
		c8.4,11.6,16.8,23.2,25.3,34.7c1.1,1.5,1.2,2.2-0.5,3.4c-4.8,3.3-9.5,6.8-14.2,10.4c-1.3,1-1.9,0.6-2.7-0.6
		c-7.8-10.8-15.7-21.5-23.4-32.3c-1.6-2.2-2.4-1.9-3.8,0c-7.7,10.6-15.4,21.2-23,31.9c-1.3,1.8-2,1.7-3.6,0.5
		c-4.5-3.4-9.1-6.8-13.8-10c-1.5-1-1.6-1.7-0.5-3.2c8.6-11.7,17.1-23.4,25.6-35.2c3.1-4.3,3.1-5.8,0-10.2
		C422.2,37.6,413.7,25.7,405,14c-1.1-1.6-0.6-2.1,0.6-2.9c4.8-3.4,9.5-6.8,14.2-10.4c1.4-1.1,2-0.8,3,0.5
		c7.7,10.7,15.5,21.4,23.2,32.1c1.9,2.6,2,2.6,3.8,0c7.8-10.7,15.6-21.3,23.2-32.1c1.1-1.5,1.8-1.5,3.2-0.4
		c4.7,3.5,9.5,6.9,14.2,10.4C490.9,11.6,491.6,11.8,491.8,12.6z"/>
	<path class="st0" d="M561.4,45.9c0-10.3,0-20.7,0-31c0-1.8,0.4-2.4,2.3-2.3c5.7,0.1,11.4,0.2,17,0c2.1-0.1,2.6,0.5,2.6,2.6
		c-0.1,18.4,0,36.9,0,55.3c0,4.6,1.4,6,5.9,6c6.9,0,13.8,0.1,20.7,0c1.7,0,2.2,0.4,2.2,2.2c-0.1,5.3-0.1,10.6,0,15.9
		c0,1.2,0,1.9-1.6,1.8c-10.2-0.1-20.5,0.1-30.7-0.3c-9.9-0.4-18.2-9.5-18.3-19.5C561.3,66.4,561.4,56.2,561.4,45.9z"/>
	<path class="st0" d="M288,45.4c0-10.2,0-20.3,0-30.5c0-1.8,0.3-2.4,2.2-2.3c5.6,0.2,11.2,0.2,16.8,0c2.3-0.1,2.9,0.4,2.9,2.8
		c-0.1,17.1-0.1,34.3-0.1,51.4c0,1.4,0,2.8,0,4.2c0.1,3.8,1.7,5.5,5.4,5.5c7.1,0,14.2,0,21.2,0c1.7,0,2.5,0.2,2.4,2.2
		c-0.2,5.2-0.1,10.4,0,15.6c0,1.6-0.4,2.1-2,2c-9.5-0.1-19,0.1-28.5-0.1c-11.8-0.2-20.4-9.2-20.4-21C288,65.3,288,55.4,288,45.4z"/>
	<path class="st0" d="M383.3,54.8c0,13.1,0,26.2,0,39.4c0,1.8-0.5,2.3-2.3,2.3c-6-0.1-11.9-0.1-17.9,0c-1.6,0-2-0.5-2-2
		c0-26.6,0.1-53.2,0-79.9c0-1.5,0.5-1.8,1.9-1.8c6,0.1,12.1,0.1,18.1,0c1.8,0,2.1,0.6,2.1,2.2C383.3,28.1,383.3,41.4,383.3,54.8
		L383.3,54.8z"/>
	<path class="st0" d="M534.6,54.6c0,13.1,0,26.3,0.1,39.4c0,2-0.6,2.5-2.5,2.4c-5.8-0.1-11.5-0.1-17.3,0c-1.9,0-2.2-0.6-2.2-2.4
		c0.1-26.3,0.1-52.7,0-79c0-2,0.6-2.4,2.5-2.4c5.8,0.1,11.5,0.1,17.3,0c1.9,0,2.3,0.6,2.2,2.3C534.6,28.2,534.6,41.4,534.6,54.6z"/>
	<path class="st1" d="M81.5,39.6c0-8.3,0-16.6,0-24.9c0-1.7,0.3-2.5,2.2-2.3c6.5,0.4,13.1-0.7,19.5,0.7c7.2,1.5,10.8,5.3,12,12.5
		c1,6-0.4,14-6.9,16.8c-1.6,0.7-0.8,1.6-0.4,2.4c2.9,6.8,5.7,13.7,8.7,20.5c1,2.2,0.3,2.6-1.7,2.3c-0.4,0-0.7,0-1.1,0
		c-2.4,0-5.5,0.9-7.1-0.3c-1.8-1.3-2.3-4.5-3.3-6.8c-1.9-4.5-3.8-9.1-5.5-13.7c-1-2.6-2.9-1.7-4.6-1.8c-2.1,0-1.2,1.8-1.2,2.7
		c-0.1,5.9-0.1,11.7,0,17.6c0,1.9-0.5,2.4-2.3,2.3C87,67.4,83.5,68.7,82,67c-1.3-1.5-0.4-5-0.4-7.6C81.5,52.9,81.5,46.2,81.5,39.6z
		 M92,28.7c0,0.7,0,1.5,0,2.2c0,6.1,0.4,6.4,6.6,5.5c2.8-0.4,5-1.6,6-4.6c2.1-6.3-1.2-11-7.8-11.1C92,20.8,92,20.8,92,25.4
		C92,26.5,92,27.6,92,28.7z"/>
	<path class="st1" d="M182,39.8c0-4.4-0.4-8.8,0.1-13.1c1.3-11,7.8-16.1,18.9-15.2c9.5,0.7,14.5,5.2,15.4,15.1
		c0.8,9.2,0.9,18.6-0.2,27.9c-1,8.4-5.8,12.9-14.3,13.7c-3,0.3-6,0.2-8.9-0.6c-7.1-1.9-11-7.6-11.2-16.3c-0.1-3.8,0-7.6,0-11.5
		C181.8,39.8,181.9,39.8,182,39.8z M206.2,40.2c0-3.9,0-7.8,0-11.7c0-0.2,0-0.4,0-0.6c-0.2-5.2-2.6-7.4-7.8-7.2
		c-4.2,0.2-6.2,2.6-6.3,7.9c-0.1,7.5,0,15.1,0,22.6c0,1.3,0.2,2.6,0.6,3.8c0.5,1.9,1.8,3.2,3.8,3.8c5.6,1.7,9.6-1.2,9.7-7.1
		C206.3,47.9,206.2,44,206.2,40.2z"/>
	<path class="st1" d="M54.8,12.5c6.6,0,6.6,0,8.3,6.8c3.7,15.5,7.4,31,11.3,46.5c0.5,1.9-0.1,1.9-1.6,1.9c-7.9,0.1-7.9,0.2-9.6-7.5
		C62.2,56,62.2,56,58.1,56c-3,0-6,0.1-8.9,0c-1.4-0.1-2,0.5-2.3,1.7c-0.6,2.6-1.4,5.2-1.9,7.8c-0.3,1.7-1.2,2.2-2.9,2.1
		c-1.9-0.2-3.7-0.2-5.6,0c-2,0.2-2.1-0.6-1.7-2.2c3.6-14.3,7.1-28.6,10.7-42.9c0.6-2.6,1.5-5.2,1.9-7.8c0.3-2,1.2-2.4,3-2.3
		C51.8,12.6,53.3,12.5,54.8,12.5z M54.3,25.2c-1.5,6.5-3.1,13.1-4.7,19.7c-0.4,1.5,0.2,1.9,1.7,1.9c2.2-0.1,4.5-0.1,6.7,0
		c1.4,0,2-0.1,1.6-1.8c-1.5-6.1-2.9-12.3-4.3-18.4C55.2,25.9,55.1,25.3,54.3,25.2z"/>
	<path class="st1" d="M0.4,39.6c0-8.3,0-16.6,0-24.9c0-1.7,0.3-2.5,2.2-2.3c6.7,0.4,13.4-0.7,20,0.7c8,1.7,12.5,7.6,12.2,15.9
		c-0.3,8.9-5.1,14.5-13.5,15.8c-2.8,0.4-5.6,0.7-8.3,0.5c-1.9-0.2-2.3,0.6-2.3,2.4c0.1,5.9,0,11.7,0.1,17.6c0,1.8-0.5,2.5-2.3,2.4
		c-2.6-0.2-6,0.8-7.6-0.5c-1.7-1.4-0.5-4.9-0.5-7.5C0.3,53,0.4,46.3,0.4,39.6z M10.8,28.7c0,0.9,0,1.9,0,2.8c0,5.2,0,4.9,5.2,5.2
		c8.1,0.5,9.6-6.8,7.7-11.7c-1.3-3.5-6.4-5.5-11.7-4c-2.7,0.8-0.6,3.7-1.2,5.5C10.6,27.2,10.8,28,10.8,28.7z"/>
	<path class="st1" d="M226.2,39.9c0-8.4,0-16.8,0-25.1c0-1.7,0.3-2.4,2.2-2.4c7.7,0.1,15.5,0.1,23.2,0c1.5,0,2.2,0.3,2,2
		c-0.2,2.3,0.7,5.3-0.5,6.7c-0.9,1.1-4.2,0.4-6.4,0.4c-2.6,0-5.2,0.1-7.8,0c-1.6-0.1-2.4,0.3-2.3,2.1c0.1,3,0.1,6,0,8.9
		c0,1.4,0.4,1.9,1.9,1.9c3.3-0.1,6.5,0,9.8-0.1c1.2,0,1.8,0.3,1.6,1.5c0,0.2,0,0.4,0,0.6c-0.1,2.3,0.8,5.4-0.4,6.8
		c-1.2,1.4-4.4,0.4-6.6,0.4c-6.1,0.1-6.1,0-6.1,6.3c0,5.2-0.1,10.4,0,15.6c0,1.6-0.5,2.1-2.1,2.1c-2.7-0.1-6.2,0.9-7.9-0.4
		c-1.7-1.4-0.5-5.1-0.5-7.7C226.2,52.9,226.2,46.4,226.2,39.9z"/>
	<path class="st1" d="M134.1,44.5c0-6.8-0.1-13.6,0.1-20.4c0-2.1-0.6-2.7-2.7-2.6c-2.7,0.2-5.4,0-8.1,0.1c-1.3,0-1.7-0.4-1.7-1.7
		c-0.3-7.4-0.3-7.3,7-7.3c8.7,0,17.3,0.1,26,0c1.9,0,2.4,0.5,2.3,2.3c-0.2,2.2,0.6,5.1-0.5,6.4c-0.9,1.1-4,0.4-6.2,0.4
		c-5.8,0-5.8,0-5.8,5.8c0,12.6-0.1,25.1,0.1,37.7c0,2.2-0.6,2.8-2.7,2.6c-1.8-0.2-3.7-0.2-5.6,0c-1.8,0.2-2.2-0.5-2.2-2.2
		C134.1,58.5,134.1,51.5,134.1,44.5z"/>
</g>
</svg>
